<?xml version="1.0" encoding="UTF-8"?>
<svg id="Layer_2" data-name="Layer 2" xmlns="http://www.w3.org/2000/svg" viewBox="0 0 8318.5 5198.84">
  <defs>
    <style>
      .cls-1 {
        fill: #fff;
      }

      .cls-2 {
        fill: #50529e;
      }

      .cls-3 {
        fill: #f4edf6;
      }
    </style>
  </defs>
  <g id="Layer_1-2" data-name="Layer 1">
    <g>
      <rect class="cls-2" width="8318.5" height="5198.84" rx="948.93" ry="948.93"/>
      <g>
        <path class="cls-1" d="m3112.95,2568.37c-10.05-10.75-21.71-19.27-34.98-25.52-11.1-5.24-23.35-8.87-36.65-10.89l75.29-83.6,28.59-69.92h-340.68l-50.96,110.41-37.17-81.22-13.33-29.18h-162.52l167.3,346.75,45.9,95.19h228.46c17.21,0,33.33-1.75,48.24-5.2,14.94-3.45,28.69-8.62,41.15-15.46,25.2-13.86,44.54-33.02,57.45-56.9,12.71-23.53,19.16-49.77,19.16-78.01,0-38.85-11.87-71.28-35.25-96.44Zm1.78,166.71c-11.41,21.12-28.55,38.08-50.96,50.4-22.51,12.39-49.95,18.67-81.57,18.67-5.52,0-11-.21-16.27-.56-23.42-1.68-44.33-6.98-62.17-15.81-21.89-10.86-39.34-25.31-51.87-43-11.13-15.67-18.81-32.88-22.76-51.24-.35-1.57-.66-3.14-.98-4.82l-1.61-7.96,78.26-13.79.24,1.33c3.25,19.97,11.13,35.88,24.08,48.62,12.67,12.53,30.23,18.6,53.61,18.6,8.24,0,15.81-.84,22.62-2.48,11.45-2.79,21.08-8.03,28.73-15.53,12.25-12.08,18.22-28.97,18.22-51.56,0-7.19-1.12-18.19-6.42-29.88-2.9-6.42-6.74-12.35-11.48-17.59-12.81-14.24-28.62-19.76-39.65-21.89-1.75-.31-3.63-.59-4.36-.7-5.51-.8-11.41-1.19-17.49-1.19-4.26,0-8.66.21-13.05.59-12.46,1.08-21.4,3.35-30.89,5.76-5.2,1.29-10.37,2.76-15.53,4.36v-48.59l82.27-90.61h-107.26l32.99-71.56h199.55l-18.36,44.92-73.37,81.47-20.18,22.41,29.77,4.54c11.73,1.78,22.58,4.99,32.22,9.56,11.31,5.31,21.4,12.67,29.98,21.89,20.49,22.03,30.89,50.75,30.89,85.34,0,25.52-5.79,49.15-17.21,70.27Z"/>
        <g>
          <polygon class="cls-3" points="3380.75 2661.03 3460.69 2458.96 3519.31 2458.96 3390.97 2772.94 3368.76 2772.94 3239.97 2458.96 3300.37 2458.96 3380.75 2661.03"/>
          <path class="cls-3" d="m3718.75,2596.64c-9.33-20.43-22.8-35.97-40.41-46.63-17.62-10.66-38.12-15.99-61.51-15.99s-43.23,4.96-61.29,14.88c-18.06,9.92-32.2,24.06-42.41,42.41-10.21,18.36-15.32,39.82-15.32,64.39s4.89,44.63,14.66,62.84c9.77,18.21,23.76,32.27,41.97,42.19,18.21,9.92,39.45,14.88,63.73,14.88,28.71,0,52.47-6.44,71.28-19.32,18.8-12.88,30.71-29.23,35.75-49.07l-54.62-14.66c-7.7,23.39-25.17,35.08-52.41,35.08-18.36,0-32.94-5.11-43.74-15.32-10.81-10.21-17.39-24.49-19.76-42.86h176.31c1.18-28.13-2.89-52.4-12.21-72.83Zm-162.76,35.53c3.55-16.58,10.58-29.38,21.09-38.41,10.51-9.03,23.46-13.55,38.86-13.55s28.2,4.3,39.3,12.88c11.1,8.59,17.54,21.61,19.32,39.08h-118.58Z"/>
          <path class="cls-3" d="m3768.21,2769.84v-230.93s56.84,0,56.84,0v26.65c6.51-10.36,15.69-18.35,27.54-23.98,11.84-5.62,25.16-8.44,39.97-8.44,25.16,0,45.22,8.15,60.18,24.43,14.95,16.29,22.43,38.79,22.43,67.5v144.78s-56.4,0-56.4,0v-139.89c0-16.58-4.22-29.23-12.66-37.97-8.44-8.73-19.76-13.1-33.97-13.1-14.21,0-25.61,4.37-34.2,13.1-8.59,8.74-12.88,21.25-12.88,37.53v140.34s-56.84,0-56.84,0Z"/>
          <path class="cls-3" d="m4030.49,2512.56c-5.71-5.57-8.56-13.1-8.56-22.62,0-9.51,2.85-17.05,8.56-22.62,5.71-5.57,13.58-8.35,23.64-8.35,9.78,0,17.53,2.79,23.23,8.35,5.71,5.57,8.56,13.11,8.56,22.62s-2.85,17.05-8.56,22.62c-5.71,5.57-13.45,8.36-23.23,8.36-10.05,0-17.93-2.78-23.64-8.36Z"/>
          <rect class="cls-3" x="4025.28" y="2538.9" width="56.4" height="230.93"/>
          <polygon class="cls-3" points="4322.84 2661.03 4402.77 2458.96 4461.4 2458.96 4333.05 2772.94 4310.84 2772.94 4182.06 2458.96 4242.45 2458.96 4322.84 2661.03"/>
          <rect class="cls-3" x="4494.7" y="2538.9" width="56.4" height="230.93"/>
          <path class="cls-3" d="m4499.91,2512.56c-5.71-5.57-8.56-13.1-8.56-22.62,0-9.51,2.85-17.05,8.56-22.62,5.71-5.57,13.58-8.35,23.64-8.35,9.78,0,17.53,2.79,23.23,8.35,5.71,5.57,8.56,13.11,8.56,22.62,0,9.51-2.85,17.05-8.56,22.62-5.71,5.57-13.45,8.36-23.23,8.36-10.05,0-17.93-2.78-23.64-8.36Z"/>
          <path class="cls-3" d="m4885.32,2512.56c-5.71-5.57-8.56-13.1-8.56-22.62,0-9.51,2.85-17.05,8.56-22.62,5.71-5.57,13.58-8.35,23.64-8.35,9.78,0,17.53,2.79,23.23,8.35,5.71,5.57,8.56,13.11,8.56,22.62,0,9.51-2.85,17.05-8.56,22.62-5.71,5.57-13.45,8.36-23.23,8.36-10.05,0-17.93-2.78-23.64-8.36Z"/>
          <path class="cls-3" d="m5354.75,2512.56c-5.71-5.57-8.56-13.1-8.56-22.62,0-9.51,2.85-17.05,8.56-22.62,5.71-5.57,13.58-8.35,23.64-8.35,9.78,0,17.53,2.79,23.23,8.35,5.71,5.57,8.56,13.11,8.56,22.62,0,9.51-2.85,17.05-8.56,22.62-5.71,5.57-13.45,8.36-23.23,8.36-10.05,0-17.93-2.78-23.64-8.36Z"/>
          <path class="cls-3" d="m5722.53,2512.56c-5.71-5.57-8.56-13.1-8.56-22.62,0-9.51,2.85-17.05,8.56-22.62,5.71-5.57,13.58-8.35,23.64-8.35,9.78,0,17.53,2.79,23.23,8.35,5.71,5.57,8.56,13.11,8.56,22.62,0,9.51-2.85,17.05-8.56,22.62-5.71,5.57-13.45,8.36-23.23,8.36-10.05,0-17.93-2.78-23.64-8.36Z"/>
          <path class="cls-3" d="m4829.56,2770.28v-311.31h-56.4v105.7c-7.11-10.06-16.81-17.77-29.09-23.09-12.29-5.33-25.53-7.99-39.75-7.99-19.54,0-37.97,4.88-55.29,14.65-17.32,9.77-31.24,23.91-41.75,42.41-10.51,18.51-15.77,39.9-15.77,64.17,0,24.28,5.25,45.6,15.77,63.95,10.51,18.36,24.35,32.42,41.52,42.19,17.17,9.77,35.67,14.66,55.51,14.66,14.21,0,27.38-2.6,39.53-7.77,12.14-5.18,21.91-12.8,29.31-22.87v25.31h56.4Zm-71.5-63.06c-11.85,13.32-27.39,19.99-46.63,19.99s-34.35-6.73-46.19-20.21c-11.84-13.47-17.76-31.01-17.76-52.63,0-21.61,5.92-39.08,17.76-52.4,11.84-13.32,27.24-19.98,46.19-19.98s34.78,6.66,46.63,19.98c11.84,13.32,17.76,30.94,17.76,52.85,0,21.62-5.93,39.08-17.76,52.41Z"/>
          <rect class="cls-3" x="4880.11" y="2538.9" width="56.4" height="230.93"/>
          <polygon class="cls-3" points="5177.67 2661.03 5257.61 2458.96 5316.23 2458.96 5187.89 2772.94 5165.68 2772.94 5036.89 2458.96 5097.29 2458.96 5177.67 2661.03"/>
          <rect class="cls-3" x="5349.54" y="2538.9" width="56.4" height="230.93"/>
          <path class="cls-3" d="m5508.81,2760.73c-17.92-9.92-31.98-24.05-42.19-42.41-10.21-18.35-15.32-39.52-15.32-63.51,0-23.98,5.11-45.14,15.32-63.51,10.21-18.35,24.27-32.57,42.19-42.63,17.91-10.06,38.12-15.1,60.62-15.1,26.05,0,48.92,6.66,68.61,19.98,19.69,13.32,33.09,31.53,40.19,54.62l-54.18,16.43c-5.04-12.43-12.37-22.21-21.98-29.31-9.62-7.11-20.95-10.66-33.97-10.66-18.06,0-32.72,6.52-43.97,19.54-11.25,13.03-16.87,29.75-16.87,50.18,0,20.73,5.55,37.53,16.65,50.41,11.1,12.88,25.68,19.32,43.74,19.32,14.21,0,26.42-4,36.64-11.99,10.21-7.99,17.39-18.8,21.54-32.42l53.73,15.54c-5.93,24.58-18.95,44.12-39.08,58.62-20.14,14.51-43.97,21.76-71.5,21.76-22.21,0-42.27-4.96-60.18-14.88Z"/>
          <rect class="cls-3" x="5717.32" y="2538.9" width="56.4" height="230.93"/>
        </g>
      </g>
    </g>
  </g>
</svg>